<svg version="1.0" xmlns="http://www.w3.org/2000/svg"
 width="1710.000000pt" height="1708.000000pt" viewBox="0 0 1710.000000 1708.000000"
 preserveAspectRatio="xMidYMid meet">

<g transform="translate(0.000000,1708.000000) scale(0.100000,-0.100000)"
fill="#000000" stroke="none">
<path d="M8000 17059 c-133 -10 -313 -27 -410 -39 -41 -5 -118 -14 -170 -20
-141 -17 -443 -68 -675 -115 -284 -58 -864 -225 -1110 -320 -140 -54 -351
-137 -380 -150 -16 -7 -75 -32 -130 -55 -174 -74 -569 -271 -790 -395 -521
-291 -1175 -773 -1610 -1185 -154 -145 -357 -350 -461 -465 -54 -60 -122 -134
-150 -165 -150 -163 -395 -481 -596 -775 -509 -743 -870 -1493 -1142 -2377
-33 -107 -50 -169 -107 -388 -34 -133 -85 -367 -110 -505 -6 -33 -14 -80 -19
-105 -35 -182 -78 -530 -102 -820 -16 -197 -21 -907 -9 -1105 21 -324 57 -666
91 -867 6 -32 15 -86 20 -120 29 -173 76 -400 122 -588 39 -165 137 -497 203
-695 65 -192 213 -574 280 -720 17 -38 47 -104 66 -145 65 -144 231 -467 314
-610 21 -36 46 -80 56 -98 11 -18 44 -74 75 -125 31 -50 70 -113 85 -139 46
-77 243 -361 367 -528 240 -323 481 -601 766 -884 327 -324 520 -495 868 -769
216 -169 613 -441 828 -567 41 -24 95 -56 120 -70 25 -15 70 -41 100 -57 30
-17 84 -46 120 -65 142 -77 551 -278 565 -278 2 0 33 -14 69 -30 84 -39 479
-194 570 -225 60 -19 350 -113 451 -145 29 -9 179 -48 360 -94 50 -13 117 -29
150 -35 33 -7 78 -17 100 -22 140 -31 329 -64 620 -109 134 -20 290 -36 590
-60 179 -15 937 -16 1115 -2 254 20 465 42 595 62 33 5 96 14 140 20 134 20
355 61 640 121 60 12 387 97 437 113 23 7 77 23 118 36 100 30 286 92 390 130
47 17 105 38 130 47 71 24 289 112 358 144 35 16 65 29 67 29 3 0 117 52 235
107 173 81 501 252 560 293 14 9 30 19 35 21 114 44 783 496 1042 702 260 208
410 345 709 642 391 389 619 657 958 1123 75 104 271 401 331 502 71 120 137
235 167 290 17 30 44 80 61 110 36 65 217 426 217 433 0 3 18 45 41 94 22 48
46 102 54 118 25 54 127 308 157 390 195 526 349 1107 429 1615 6 36 15 92 20
125 14 92 46 365 58 505 55 621 35 1335 -55 1950 -15 99 -21 138 -43 278 -34
207 -110 541 -191 837 -5 17 -15 56 -24 87 -58 211 -256 761 -351 973 -32 70
-64 142 -87 195 -80 181 -229 462 -440 830 -97 169 -390 599 -527 774 -92 117
-225 282 -260 322 -20 22 -49 56 -65 75 -224 263 -585 622 -891 884 -39 33
-72 62 -75 65 -18 20 -243 198 -385 304 -93 70 -177 133 -185 139 -90 70 -619
402 -775 487 -44 23 -105 57 -135 73 -105 58 -355 182 -475 236 -181 81 -188
84 -362 154 -153 63 -221 89 -323 123 -25 9 -88 31 -140 49 -89 31 -181 60
-275 87 -22 6 -58 17 -80 23 -52 17 -309 85 -360 96 -22 5 -62 14 -90 19 -27
5 -68 14 -90 19 -177 40 -493 97 -665 120 -129 18 -305 35 -627 61 -141 12
-918 11 -1073 -1z m937 -4682 c209 -364 641 -1112 958 -1662 318 -550 789
-1367 1048 -1815 258 -448 857 -1485 1329 -2303 472 -818 861 -1494 865 -1502
4 -13 -300 -15 -2463 -15 l-2469 0 -570 986 c-313 543 -599 1038 -635 1100
-57 100 -67 112 -78 97 -7 -10 -196 -335 -419 -723 -224 -388 -505 -874 -624
-1080 l-216 -375 -853 -3 c-809 -2 -852 -1 -845 15 3 10 86 155 182 323 551
952 1454 2517 2220 3845 305 528 557 963 561 967 4 4 401 -676 882 -1509 481
-834 958 -1661 1060 -1837 l186 -321 762 -3 c419 -1 762 0 762 2 0 2 -145 256
-322 563 -178 307 -633 1098 -1013 1756 -379 658 -692 1196 -695 1196 -3 0
-106 -176 -230 -391 -124 -215 -229 -390 -235 -389 -5 0 -44 61 -87 134 -42
72 -232 401 -422 730 l-345 598 657 1139 c361 627 659 1139 662 1139 3 0 177
-298 387 -662z"/>
</g>
</svg>
